<?xml version="1.0" encoding="utf-8"?>
<!-- Generator: Adobe Illustrator 25.0.0, SVG Export Plug-In . SVG Version: 6.00 Build 0)  -->
<svg version="1.1" id="Layer_1" xmlns="http://www.w3.org/2000/svg" xmlns:xlink="http://www.w3.org/1999/xlink" x="0px" y="0px"
	 viewBox="0 0 1058 875" style="enable-background:new 0 0 1058 875;" xml:space="preserve">
<style type="text/css">
	.st0{opacity:0.47;fill:#E6E6E6;enable-background:new    ;}
	.st1{opacity:0.45;fill:#E6E6E6;enable-background:new    ;}
	.st2{fill:#E6E6E6;}
	.st3{fill:#C9C9C9;}
	.st4{fill:#24285B;}
	.st5{opacity:7.000000e-02;fill:#FFFFFF;enable-background:new    ;}
	.st6{fill:#2255FF;}
	.st7{fill:#FFFFFF;}
	.st8{fill:none;stroke:#FFFFFF;stroke-miterlimit:10;}
	.st9{fill:#F06292;}
	.st10{opacity:0.1;fill:#FFFFFF;enable-background:new    ;}
	.st11{fill:none;stroke:#E6E6E6;stroke-width:7;stroke-miterlimit:10;}
	.st12{opacity:0.1;enable-background:new    ;}
	.st13{fill:none;stroke:#FFFFFF;stroke-width:7;stroke-miterlimit:10;}
	.st14{opacity:0.45;fill:#FFFFFF;enable-background:new    ;}
	.st15{opacity:0.19;fill:#A5A5A5;enable-background:new    ;}
	.st16{opacity:0.46;fill:#FFFFFF;enable-background:new    ;}
	.st17{fill:none;stroke:#5783FF;stroke-width:1.8435;stroke-linecap:round;stroke-linejoin:round;stroke-dasharray:1.8435,9.2173;}
</style>
<path class="st0" d="M89,157.4c0,0,59.6,14.3,107.2-53.5S324-23.1,431.7,42.6s140.3,177.3,313.1,105.1s285.5,9.5,250.5,131.7
	c-35.1,122.2-115.2,134.8-25,240.2S966,743.1,796.3,738.7c-169.7-4.4-249.6-81.1-357.3-8.8s-313.1-86.7-313.1-86.7L39,315.3
	L89,157.4z"/>
<g>
	<ellipse class="st1" cx="414.2" cy="821.5" rx="318.1" ry="36.9"/>
	<rect x="504.6" y="749.2" class="st2" width="110.6" height="35.1"/>
	<rect x="504.6" y="784.8" class="st3" width="155.3" height="35.1"/>
	<rect x="314.8" y="459.6" class="st4" width="218.8" height="361.9"/>
	<path class="st5" d="M350.6,477.4h146.8c9.8,0,17.7,7.9,17.7,17.7v22.7c0,9.8-7.9,17.7-17.7,17.7H350.6c-9.8,0-17.7-7.9-17.7-17.7
		v-22.7C332.9,485.4,340.8,477.4,350.6,477.4z"/>
	<rect x="366.2" y="438.8" class="st6" width="111.4" height="20.8"/>
	<circle class="st7" cx="481.9" cy="506.6" r="15.6"/>
	<rect x="351.5" y="499.2" class="st7" width="91.8" height="14.8"/>
	<path class="st5" d="M350.6,565.9h146.8c9.8,0,17.7,7.9,17.7,17.7v22.7c0,9.8-7.9,17.7-17.7,17.7H350.6c-9.8,0-17.7-7.9-17.7-17.7
		v-22.7C332.9,573.8,340.8,565.9,350.6,565.9z"/>
	<circle class="st7" cx="481.9" cy="595.1" r="15.6"/>
	<rect x="351.5" y="587.7" class="st7" width="91.8" height="14.8"/>
	<path class="st5" d="M350.6,654.4h146.8c9.8,0,17.7,7.9,17.7,17.7v22.7c0,9.8-7.9,17.7-17.7,17.7H350.6c-9.8,0-17.7-7.9-17.7-17.7
		v-22.7C332.9,662.3,340.8,654.4,350.6,654.4z"/>
	<circle class="st7" cx="481.9" cy="683.6" r="15.6"/>
	<rect x="351.5" y="676.2" class="st7" width="91.8" height="14.8"/>
	<path class="st5" d="M350.6,742.8h146.8c9.8,0,17.7,7.9,17.7,17.7v22.7c0,9.8-7.9,17.7-17.7,17.7H350.6c-9.8,0-17.7-7.9-17.7-17.7
		v-22.7C332.9,750.8,340.8,742.8,350.6,742.8z"/>
	<circle class="st7" cx="481.9" cy="772" r="15.6"/>
	<rect x="351.5" y="764.6" class="st7" width="91.8" height="14.8"/>
</g>
<g>
	<rect x="13" y="138.8" class="st4" width="129.6" height="216.9"/>
	<polyline class="st8" points="53,205.2 100.5,205.2 100.5,284.2 	"/>
	<rect x="32.5" y="157.7" class="st9" width="62.9" height="10.1"/>
	<rect x="36.4" y="194.9" class="st6" width="33.1" height="20.6"/>
	<line class="st8" x1="53" y1="284.2" x2="100" y2="284.2"/>
	<rect x="84" y="235.4" class="st6" width="33.1" height="20.6"/>
	<rect x="36.4" y="273.9" class="st6" width="33.1" height="20.6"/>
	<rect x="83.4" y="273.9" class="st6" width="33.1" height="20.6"/>
	<rect x="36.4" y="322" class="st10" width="80.2" height="14.6"/>
</g>
<g>
	<rect x="304.8" y="51" class="st4" width="240.4" height="240.4"/>
	<rect x="375.1" y="156.5" class="st6" width="77.2" height="8.6"/>
	<rect x="397.2" y="132.4" class="st9" width="69.1" height="8.6"/>
	<rect x="463.1" y="223.7" class="st9" width="36" height="8.6"/>
	<rect x="426.7" y="199.4" class="st9" width="36" height="8.6"/>
	<rect x="397.2" y="177.4" class="st6" width="92" height="8.6"/>
	<rect x="346.4" y="177.4" class="st7" width="34.6" height="8.6"/>
	<rect x="380.9" y="200.1" class="st7" width="34.6" height="8.6"/>
	<rect x="348.1" y="246.4" class="st7" width="34.6" height="8.6"/>
	<rect x="324.3" y="156.5" class="st7" width="34.6" height="8.6"/>
	<circle class="st7" cx="320.6" cy="65.6" r="4.1"/>
	<circle class="st6" cx="332.7" cy="65.6" r="4.1"/>
	<circle class="st9" cx="344.1" cy="65.6" r="4.1"/>
	<rect x="324.3" y="90.8" class="st7" width="34.6" height="8.6"/>
	<rect x="346.4" y="112.4" class="st7" width="34.6" height="8.6"/>
	<rect x="397.2" y="112.4" class="st9" width="69.1" height="8.6"/>
	<rect x="346.4" y="132.4" class="st7" width="34.6" height="8.6"/>
	<rect x="372.8" y="90.8" class="st6" width="71.3" height="8.6"/>
	<rect x="325.3" y="223.7" class="st7" width="34.6" height="8.6"/>
	<rect x="373.7" y="223.7" class="st6" width="71.3" height="8.6"/>
	<rect x="396.4" y="246.4" class="st6" width="71.3" height="8.6"/>
	<rect x="459" y="90.8" class="st6" width="50.6" height="8.6"/>
</g>
<g>
	<rect x="713.5" y="103.2" class="st2" width="327.8" height="252.9"/>
	<rect x="738" y="122" class="st3" width="278.9" height="215.2"/>
	<line class="st11" x1="954.5" y1="233" x2="954.5" y2="337.2"/>
	<polygon class="st12" points="944.8,103.6 1004.4,103.6 1004.4,105.1 974.6,163.4 959.5,163.4 	"/>
	<line class="st11" x1="815.2" y1="195.2" x2="884.4" y2="253.9"/>
	<line class="st11" x1="954.5" y1="233" x2="1022.5" y2="276.5"/>
	<polyline class="st13" points="862.6,337.9 862.6,281.5 900.8,233 954.5,233 954.5,163.8 	"/>
	<ellipse class="st4" cx="956.8" cy="163.4" rx="19.6" ry="6.4"/>
	<path class="st9" d="M985.6,109.4c0-15.9-12.9-28.8-28.8-28.8S928,93.5,928,109.4c0,5.3,1.5,10.5,4.2,15l0,0l24.6,40.3l24.5-40.1
		l0,0C984.1,120,985.6,114.8,985.6,109.4z M956.8,124.7c-7.8,0-14.1-6.3-14.1-14.1s6.3-14.1,14.1-14.1c7.8,0,14.1,6.3,14.1,14.1
		c0,0,0,0,0,0C970.9,118.4,964.6,124.7,956.8,124.7z"/>
	<polyline class="st11" points="732.2,195.2 815.2,195.2 815.2,115.5 	"/>
	<polyline class="st11" points="815.2,160.3 893.6,160.3 893.6,115.5 	"/>
</g>
<g>
	<rect x="50.3" y="518" class="st3" width="184.4" height="63"/>
	<circle class="st7" cx="92.9" cy="549.5" r="21"/>
	<rect x="132.5" y="535.5" class="st7" width="70.3" height="10.5"/>
	<rect x="132.5" y="553" class="st14" width="70.3" height="10.5"/>
</g>
<g>
	<rect x="772.2" y="135.2" class="st6" width="3.6" height="41"/>
	<rect x="742.8" y="179" class="st2" width="62.5" height="135.7"/>
	<rect x="762.6" y="168.1" class="st4" width="24.3" height="10.9"/>
	<rect x="762.6" y="285.2" class="st6" width="24.3" height="29.5"/>
	<rect x="756.4" y="191.6" class="st15" width="6.9" height="80.2"/>
	<rect x="772.1" y="191.6" class="st15" width="6.9" height="80.2"/>
	<rect x="787.7" y="191.6" class="st15" width="6.9" height="80.2"/>
	<circle class="st16" cx="780" cy="302" r="2"/>
</g>
<g>
	<polygon class="st17" points="142.7,314.7 545,176 712.7,271.5 534,650 189.3,531.4 	"/>
	<line class="st17" x1="411.1" y1="388" x2="713" y2="271"/>
	<line class="st17" x1="411.1" y1="388" x2="534" y2="650"/>
	<line class="st17" x1="410.9" y1="388.5" x2="144.3" y2="318.5"/>
	<line class="st17" x1="410.9" y1="388.2" x2="192.3" y2="527.4"/>
	<line class="st17" x1="410.8" y1="388.2" x2="545" y2="176"/>
	<circle class="st6" cx="141.3" cy="313.7" r="14"/>
	<circle class="st6" cx="712.7" cy="271.2" r="14"/>
	<ellipse class="st6" cx="533.6" cy="650.5" rx="14.3" ry="14"/>
	<circle class="st9" cx="410.8" cy="388.1" r="30"/>
	<circle class="st6" cx="189.3" cy="529" r="14"/>
	<circle class="st6" cx="545" cy="177.4" r="14"/>
</g>
</svg>
