<?xml version="1.0" encoding="utf-8"?>
<!-- Generator: Adobe Illustrator 25.0.0, SVG Export Plug-In . SVG Version: 6.00 Build 0)  -->
<svg version="1.1" id="Layer_1" xmlns="http://www.w3.org/2000/svg" xmlns:xlink="http://www.w3.org/1999/xlink" x="0px" y="0px"
	 viewBox="0 0 1319 1080" style="enable-background:new 0 0 1319 1080;" xml:space="preserve">
<style type="text/css">
	.st0{fill:#EBF1FF;}
	.st1{fill:#2255FF;}
	.st2{fill:#E6E6E6;}
	.st3{opacity:0.3;fill:#FFFFFF;enable-background:new    ;}
	.st4{fill:#C1C1C1;}
	.st5{fill:#FFFFFF;}
	.st6{fill:#C9C9C9;}
	.st7{opacity:0.56;fill:#FFFFFF;enable-background:new    ;}
	.st8{opacity:0.12;enable-background:new    ;}
	.st9{fill:none;stroke:#A8A8A8;stroke-miterlimit:10;}
	.st10{fill:#F06292;}
	.st11{fill:none;stroke:#FFFFFF;stroke-width:3;stroke-linecap:round;stroke-linejoin:round;}
</style>
<path class="st0" d="M488.4,25.6C178.8,9.3-49.4,318.3,65,606.6c19.8,50.8,50.3,96.8,89.6,134.6c253.6,243.3,796.9,161.1,965.7,34.2
	s238-511.1,86.5-632.3C1018.3-7.5,769.4,40.4,488.4,25.6z"/>
<g>
	<g>
		<g>
			<polygon class="st1" points="574.8,354.1 562.6,354.1 562.6,269.5 649.7,269.5 649.7,281.6 574.8,281.6 			"/>
		</g>
		<g>
			<polygon class="st1" points="994.6,719.5 1006.7,719.5 1006.7,804.1 919.7,804.1 919.7,792 994.6,792 			"/>
		</g>
	</g>
	<g>
		<g>
			<polygon class="st1" points="645.7,703 645.7,715.1 561,715.1 561,628.1 573.2,628.1 573.2,703 			"/>
		</g>
		<g>
			<polygon class="st1" points="923.7,283.2 923.7,271.1 1008.3,271.1 1008.3,358.1 996.2,358.1 996.2,283.2 			"/>
		</g>
	</g>
	<g>
		<g>
			<rect x="620.6" y="312.3" class="st2" width="346.5" height="443.5"/>
			<rect x="620.6" y="311.8" class="st3" width="346.5" height="442.9"/>
			<rect x="662.6" y="367.1" class="st4" width="98" height="30.7"/>
			<rect x="793.5" y="367.1" class="st5" width="138" height="30.7"/>
			<rect x="662.6" y="618" class="st4" width="98" height="30.7"/>
			<rect x="793.5" y="618" class="st5" width="138" height="30.7"/>
			<rect x="662.6" y="430.5" class="st4" width="98" height="30.7"/>
			<rect x="793.5" y="430.5" class="st5" width="111.1" height="30.7"/>
			<rect x="662.6" y="493.7" class="st4" width="67.4" height="30.7"/>
			<rect x="793.5" y="493.7" class="st5" width="138" height="30.7"/>
			<rect x="662.6" y="554.4" class="st4" width="67.4" height="30.7"/>
			<rect x="793.5" y="554.4" class="st5" width="94.1" height="30.7"/>
		</g>
		<rect x="300.8" y="214.5" class="st6" width="462.3" height="829.2"/>
		<rect x="339" y="309.1" class="st5" width="382.7" height="583.6"/>
		<circle class="st7" cx="533.4" cy="967.3" r="45.2"/>
		<rect x="492.9" y="246.9" class="st8" width="129.6" height="18.9"/>
		<circle class="st5" cx="445.9" cy="258.4" r="21.1"/>
		<g>
			<rect x="337.8" y="308.5" class="st2" width="385.6" height="591.2"/>
			<line class="st9" x1="370" y1="336.2" x2="399.1" y2="336.2"/>
			<line class="st9" x1="370" y1="350.8" x2="399.1" y2="350.8"/>
			<line class="st9" x1="370" y1="365.4" x2="399.1" y2="365.4"/>
			<rect x="337.8" y="405.7" class="st3" width="385.6" height="492.8"/>
			<rect x="384.5" y="467.3" class="st4" width="109.1" height="34.2"/>
			<rect x="530.2" y="467.3" class="st5" width="153.5" height="34.2"/>
			<rect x="384.5" y="746.4" class="st4" width="109.1" height="34.2"/>
			<rect x="530.2" y="746.4" class="st5" width="153.5" height="34.2"/>
			<rect x="384.5" y="537.8" class="st4" width="109.1" height="34.2"/>
			<rect x="530.2" y="537.8" class="st5" width="123.6" height="34.2"/>
			<rect x="384.5" y="608.1" class="st4" width="75" height="34.2"/>
			<rect x="530.2" y="608.1" class="st5" width="153.5" height="34.2"/>
			<rect x="384.5" y="675.6" class="st4" width="75" height="34.2"/>
			<rect x="530.2" y="675.6" class="st5" width="104.7" height="34.2"/>
		</g>
		<circle class="st10" cx="534.1" cy="765.6" r="75.3"/>
		<polyline class="st11" points="506.2,766.3 531.6,795.5 565.6,741.8 		"/>
	</g>
	<g>
		<g>
			<g>
				<polygon class="st4" points="357.5,476.2 349.2,476.2 349.2,418.1 408.9,418.1 408.9,426.4 357.5,426.4 				"/>
			</g>
			<g>
				<polygon class="st4" points="707.2,821.1 715.5,821.1 715.5,879.2 655.8,879.2 655.8,870.9 707.2,870.9 				"/>
			</g>
		</g>
		<g>
			<g>
				<polygon class="st4" points="411.3,869.8 411.3,878.1 353.2,878.1 353.2,818.4 361.6,818.4 361.6,869.8 				"/>
			</g>
			<g>
				<polygon class="st4" points="653.4,427.5 653.4,419.2 711.5,419.2 711.5,478.9 703.2,478.9 703.2,427.5 				"/>
			</g>
		</g>
	</g>
</g>
<rect x="348.1" y="623" class="st1" width="365" height="5.1"/>
</svg>
