<?xml version="1.0" encoding="utf-8"?>
<!-- Generator: Adobe Illustrator 25.0.0, SVG Export Plug-In . SVG Version: 6.00 Build 0)  -->
<svg version="1.1" id="Layer_1" xmlns="http://www.w3.org/2000/svg" xmlns:xlink="http://www.w3.org/1999/xlink" x="0px" y="0px"
	 viewBox="0 0 1241 989" style="enable-background:new 0 0 1241 989;" xml:space="preserve">
<style type="text/css">
	.st0{fill:#EBF1FF;}
	.st1{fill:#999999;}
	.st2{opacity:0.45;fill:#999999;enable-background:new    ;}
	.st3{fill:#E6E6E6;stroke:#C9C9C9;stroke-miterlimit:10;}
	.st4{fill:#C9C9C9;}
	.st5{opacity:0.45;fill:#C9C9C9;enable-background:new    ;}
	.st6{fill:#2255FF;}
	.st7{opacity:0.3;fill:#999999;enable-background:new    ;}
	.st8{fill:#FFFFFF;}
	.st9{opacity:0.56;fill:#FFFFFF;enable-background:new    ;}
	.st10{opacity:0.19;fill:#FFFFFF;enable-background:new    ;}
	.st11{fill:#E6E6E6;}
	.st12{opacity:0.3;fill:#FFFFFF;stroke:#C9C9C9;stroke-miterlimit:10;enable-background:new    ;}
	.st13{fill:#C1C1C1;}
	.st14{opacity:0.51;fill:#C1C1C1;enable-background:new    ;}
	.st15{opacity:0.56;fill:#999999;enable-background:new    ;}
	.st16{opacity:0.19;fill:#999999;enable-background:new    ;}
	.st17{fill:#24285B;}
	.st18{fill:#F06292;}
	.st19{opacity:0.23;fill:#FFFFFF;enable-background:new    ;}
	.st20{opacity:6.000000e-02;fill:#FFFFFF;enable-background:new    ;}
	.st21{opacity:0.65;fill:#FFFFFF;enable-background:new    ;}
	.st22{opacity:6.000000e-02;enable-background:new    ;}
	.st23{opacity:0.52;fill:#FFFFFF;enable-background:new    ;}
	.st24{fill:none;stroke:#5783FF;stroke-width:2;stroke-linecap:round;stroke-linejoin:round;stroke-dasharray:4,7;}
	.st25{fill:#5783FF;}
	.st26{opacity:0.45;fill:#606060;enable-background:new    ;}
	.st27{opacity:0.45;fill:#C1C1C1;enable-background:new    ;}
	.st28{opacity:0.51;fill:#999999;enable-background:new    ;}
</style>
<path class="st0" d="M283.2,72.4C107.8,114.4-3.3,257.9,31.3,404.2c18.3,77,75.8,149.2,213.3,183.2
	c366.4,90.8,748.5,29.8,861.9-111.8s22-445.2-353.2-454.7C569.5,16.3,404.1,43.5,283.2,72.4z"/>
<g>
	<polygon class="st1" points="961.7,255.8 1080.6,296.8 1080.6,356.5 961.7,315.5 	"/>
	
		<ellipse transform="matrix(0.7647 -0.6443 0.6443 0.7647 42.5747 708.0744)" class="st1" cx="990.9" cy="295.7" rx="13.7" ry="19.3"/>
	<polygon class="st1" points="1019.5,295.2 1059.3,309 1059.3,316.2 1019.5,302.5 	"/>
	<polygon class="st2" points="1019.5,308.7 1059.3,322.4 1059.3,329.6 1019.5,315.9 	"/>
</g>
<g>
	<polygon class="st3" points="956,258.7 1074.9,299.6 1074.9,359.3 956,318.3 	"/>
	
		<ellipse transform="matrix(0.7647 -0.6443 0.6443 0.7647 39.4145 705.0884)" class="st4" cx="985.3" cy="298.6" rx="13.7" ry="19.3"/>
	<polygon class="st4" points="1013.8,298.1 1053.6,311.8 1053.6,319 1013.8,305.3 	"/>
	<polygon class="st5" points="1013.8,311.5 1053.6,325.2 1053.6,332.4 1013.8,318.7 	"/>
</g>
<polygon class="st6" points="387.7,778.1 245.1,821.7 245.1,504.3 387.7,460.7 "/>
<g>
	<polygon class="st1" points="849,214.2 984.7,258.2 984.7,493.1 849,449 	"/>
	<polygon class="st7" points="849,214.2 984.7,258.2 984.7,493.1 849,449 	"/>
	<polygon class="st1" points="865.4,252.8 903.8,264.5 903.8,276.1 865.4,264.4 	"/>
	<polygon class="st1" points="916.7,268.5 970.7,284.9 970.7,296.5 916.7,280 	"/>
	<polygon class="st1" points="865.4,347.3 903.8,359.1 903.8,370.6 865.4,358.9 	"/>
	<polygon class="st1" points="916.7,363 970.7,379.5 970.7,391.1 916.7,374.6 	"/>
	<polygon class="st1" points="865.4,276.7 903.8,288.4 903.8,300 865.4,288.3 	"/>
	<polygon class="st1" points="916.7,292.3 960.2,305.6 960.2,317.2 916.7,303.9 	"/>
	<polygon class="st1" points="865.7,370.5 970.9,402.3 970.9,413.8 865.7,381.8 	"/>
	<polygon class="st1" points="865.7,390.4 970.9,422.3 970.9,433.8 865.7,401.7 	"/>
	<polygon class="st1" points="865.4,300.5 891.8,308.6 891.8,320.1 865.4,312.1 	"/>
	<polygon class="st1" points="916.7,316.1 970.7,332.6 970.7,344.2 916.7,327.7 	"/>
	<polygon class="st1" points="866,414.2 920.1,430.6 920.1,442.2 866,425.7 	"/>
	<polygon class="st1" points="865.4,323.4 891.8,331.4 891.8,343 865.4,334.9 	"/>
	<polygon class="st1" points="916.7,339 953.5,350.3 953.5,361.8 916.7,350.6 	"/>
</g>
<g>
	<polygon class="st1" points="730.4,377.8 849.3,418.8 849.3,478.5 730.4,437.5 	"/>
	
		<ellipse transform="matrix(0.7647 -0.6443 0.6443 0.7647 -90.4668 587.7307)" class="st1" cx="759.6" cy="417.8" rx="13.7" ry="19.3"/>
	<polygon class="st1" points="788.2,417.3 828,431 828,438.2 788.2,424.5 	"/>
	<polygon class="st2" points="788.2,430.7 828,444.4 828,451.6 788.2,437.9 	"/>
</g>
<g>
	<polygon class="st1" points="808.7,345.5 923.9,384.5 923.9,465.2 808.7,426.2 	"/>
	
		<ellipse transform="matrix(0.7637 -0.6455 0.6455 0.7637 -46.9662 631.4061)" class="st1" cx="839.1" cy="379.9" rx="11.4" ry="15.9"/>
	<polygon class="st2" points="869,378.6 906.9,391.4 906.9,444 869,431.2 	"/>
	<polygon class="st1" points="828,399.7 854,408.4 854,426.1 828,417.3 	"/>
</g>
<polygon class="st1" points="362.9,153.1 451.1,124.5 451.1,245.4 362.9,274.1 "/>
<path class="st1" d="M320.3,287.6L460.7,240c0,12,0,24.1,0,36.1c0,65.2,0,130.3,0,195.5c-46.8,15.9-93.6,31.7-140.4,47.6V287.6z"/>
<polygon class="st1" points="367.9,399.2 481.2,360.2 481.2,417.1 367.9,456.1 "/>
<polygon class="st1" points="263.9,259.2 377.2,220.2 377.2,277.1 263.9,316.1 "/>
<polygon class="st1" points="475.3,278 589.8,240.8 589.8,307.1 475.3,344.3 "/>
<polygon class="st1" points="524.9,306.1 613.1,277.5 613.1,398.4 524.9,427.1 "/>
<polygon class="st1" points="421.8,245.4 535,205.9 535.3,262.9 422,302.3 "/>
<g>
	<polygon class="st4" points="368.5,156 456.8,127.3 456.8,248.3 368.5,276.9 	"/>
	
		<ellipse transform="matrix(0.6479 -0.7617 0.7617 0.6479 15.8028 374.1793)" class="st8" cx="412.7" cy="170" rx="14.4" ry="10.4"/>
	<polygon class="st9" points="388.2,205.5 438.7,189.1 438.7,199.1 388.2,215.5 	"/>
	<polygon class="st10" points="388.2,228.1 438.7,211.7 438.7,221.7 388.2,238.1 	"/>
</g>
<g>
	<polygon class="st11" points="843.3,217 979,261.1 979,495.9 843.3,451.9 	"/>
	<polygon class="st12" points="843.3,217 979,261.1 979,495.9 843.3,451.9 	"/>
	<polygon class="st13" points="859.7,255.6 898.1,267.4 898.1,278.9 859.7,267.2 	"/>
	<polygon class="st8" points="911,271.3 965,287.8 965,299.4 911,282.9 	"/>
	<polygon class="st13" points="859.7,350.2 898.1,361.9 898.1,373.5 859.7,361.8 	"/>
	<polygon class="st8" points="911,365.8 965,382.3 965,393.9 911,377.4 	"/>
	<polygon class="st13" points="859.7,279.5 898.1,291.2 898.1,302.8 859.7,291.1 	"/>
	<polygon class="st8" points="911,295.2 954.5,308.4 954.5,320 911,306.8 	"/>
	<polygon class="st8" points="860.1,373.3 965.2,405.2 965.2,416.7 860,384.6 	"/>
	<polygon class="st13" points="860.1,393.3 965.2,425.1 965.2,436.6 860,404.6 	"/>
	<polygon class="st13" points="859.7,303.3 886.1,311.4 886.1,323 859.7,314.9 	"/>
	<polygon class="st8" points="911,319 965,335.5 965,347.1 911,330.6 	"/>
	<polygon class="st8" points="860.4,417 914.4,433.5 914.4,445.1 860.4,428.6 	"/>
	<polygon class="st13" points="859.7,326.2 886.1,334.3 886.1,345.8 859.7,337.8 	"/>
	<polygon class="st8" points="911,341.9 947.8,353.1 947.8,364.7 911,353.4 	"/>
</g>
<g>
	<path class="st3" d="M326,290.4l140.4-47.6c0,12,0,24.1,0,36.1c0,65.2,0,130.3,0,195.5c-46.8,15.9-93.6,31.7-140.4,47.6V290.4z"/>
	<polygon class="st13" points="403,447.7 445.8,433.2 445.8,445.2 403,459.7 	"/>
	<polygon class="st13" points="349.6,304.7 435,275.7 435,287.7 349.6,316.7 	"/>
	<polygon class="st14" points="359.3,325.2 425.5,302.8 425.5,314.7 359.3,337.2 	"/>
	<polygon class="st8" points="349.9,351.1 405.8,332.1 405.8,344.1 349.9,363.1 	"/>
	<polygon class="st13" points="349.4,441 389.2,427.5 389.2,439.5 349.4,452.9 	"/>
	<polygon class="st8" points="396.3,425.1 447.6,407.7 447.6,419.6 396.3,437 	"/>
	<polygon class="st13" points="349.4,374.6 389.2,361.1 389.2,373.1 349.4,386.6 	"/>
	<polygon class="st8" points="402.5,356.6 447.5,341.3 447.5,353.3 402.5,368.6 	"/>
	<polygon class="st13" points="416.9,327.8 444.2,318.5 444.2,330.5 416.9,339.8 	"/>
	<polygon class="st8" points="349.9,418 444.8,385.8 444.8,397.7 349.9,429.9 	"/>
	<polygon class="st13" points="349.4,395.9 447.5,362.6 447.5,374.6 349.4,407.9 	"/>
	<polygon class="st8" points="349.9,465.9 396.3,450.2 396.3,462.2 349.9,477.9 	"/>
</g>
<g>
	<g>
		<polygon class="st1" points="747.4,249.4 835.7,279.2 835.7,400.2 747.4,370.4 		"/>
		
			<ellipse transform="matrix(0.7637 -0.6455 0.6455 0.7637 -1.9259 580.1395)" class="st1" cx="791.6" cy="292.7" rx="10.3" ry="14.4"/>
		<polygon class="st15" points="767.1,312 817.6,329.1 817.6,339.1 767.1,322 		"/>
		<polygon class="st16" points="767.1,334.6 817.6,351.7 817.6,361.7 767.1,344.6 		"/>
	</g>
	<g>
		<polygon class="st4" points="741.8,252.3 830,282.1 830,403 741.8,373.2 		"/>
		
			<ellipse transform="matrix(0.7637 -0.6455 0.6455 0.7637 -5.0953 577.1495)" class="st8" cx="785.9" cy="295.5" rx="10.3" ry="14.4"/>
		<polygon class="st9" points="761.4,314.9 811.9,331.9 811.9,341.9 761.4,324.8 		"/>
		<polygon class="st10" points="761.4,337.5 811.9,354.5 811.9,364.5 761.4,347.5 		"/>
	</g>
</g>
<g>
	<polygon class="st3" points="724.7,380.7 843.6,421.6 843.6,481.3 724.7,440.4 	"/>
	
		<ellipse transform="matrix(0.7647 -0.6443 0.6443 0.7647 -93.627 584.7446)" class="st4" cx="754" cy="420.6" rx="13.7" ry="19.3"/>
	<polygon class="st4" points="782.5,420.1 822.3,433.8 822.3,441 782.5,427.3 	"/>
	<polygon class="st5" points="782.5,433.5 822.3,447.2 822.3,454.4 782.5,440.7 	"/>
</g>
<ellipse class="st0" cx="643.1" cy="899.9" rx="577.9" ry="70.8"/>
<polygon class="st6" points="1074.3,270.9 917.9,220.5 917.9,70.3 1074.3,120.6 "/>
<g>
	
		<rect x="418.7" y="617.8" transform="matrix(1 -2.687841e-03 2.687841e-03 1 -2.0636 1.7361)" class="st17" width="452.3" height="301.7"/>
	<rect x="694.8" y="846.4" class="st18" width="123.5" height="15.5"/>
	<rect x="603.9" y="846.4" class="st8" width="61.9" height="15.5"/>
	<rect x="694.8" y="877.1" class="st18" width="123.5" height="15.5"/>
	<rect x="603.9" y="877.1" class="st8" width="61.9" height="15.5"/>
	<circle class="st8" cx="455.2" cy="647.6" r="7.9"/>
	<circle class="st6" cx="478.7" cy="647.5" r="7.9"/>
	<circle class="st18" cx="500.9" cy="647.5" r="7.9"/>
	
		<rect x="535.4" y="639.2" transform="matrix(1 -2.617982e-03 2.617982e-03 1 -1.6919 1.6691)" class="st8" width="202.6" height="15.8"/>
	
		<rect x="707.8" y="638.9" transform="matrix(1 -2.617982e-03 2.617982e-03 1 -1.6909 1.8947)" class="st6" width="30.2" height="15.8"/>
	
		<rect x="455.5" y="699" transform="matrix(1 -2.617982e-03 2.617982e-03 1 -1.9517 1.3414)" class="st6" width="111.9" height="94.3"/>
	
		<rect x="487.1" y="805.1" transform="matrix(1 -2.617982e-03 2.617982e-03 1 -2.1203 1.3418)" class="st19" width="48.7" height="11"/>
	
		<rect x="589.9" y="698.5" transform="matrix(1 -2.617982e-03 2.617982e-03 1 -1.9988 1.8735)" class="st20" width="249.5" height="131.8"/>
	
		<rect x="603.6" y="711.1" transform="matrix(1 -2.617982e-03 2.617982e-03 1 -1.8745 1.7391)" class="st6" width="119.5" height="11.5"/>
	
		<rect x="603.8" y="806.2" transform="matrix(1 -2.617982e-03 2.617982e-03 1 -2.1233 1.74)" class="st6" width="119.5" height="11.5"/>
	
		<rect x="603.7" y="736.6" transform="matrix(1 -2.617982e-03 2.617982e-03 1 -1.9409 1.8655)" class="st8" width="215.9" height="11.5"/>
	
		<rect x="603.7" y="758" transform="matrix(1 -2.617982e-03 2.617982e-03 1 -1.997 1.8657)" class="st21" width="215.9" height="11.5"/>
	
		<rect x="603.8" y="779.2" transform="matrix(1 -2.617982e-03 2.617982e-03 1 -2.0526 1.8659)" class="st19" width="215.9" height="11.5"/>
	
		<rect x="797" y="674" transform="matrix(1 -2.617982e-03 2.617982e-03 1 -1.7933 2.1855)" class="st22" width="73.8" height="24.2"/>
	<rect x="482.1" y="711.5" class="st8" width="42.8" height="68.1"/>
	<rect x="500.7" y="711.5" class="st23" width="37" height="68.1"/>
</g>
<g>
	<g>
		<path class="st24" d="M337.7,454.3c-13.6,5.4-208.1,55.8-209,171.9c-0.4,44.3,61.1,47.7,55.1,96.6c-9.9,81.6,123.4,119.7,252,96.7
			"/>
		<g>
			<path class="st25" d="M436.8,826.9c4.1-0.7,6.8-4.7,6.1-8.7s-4.7-6.8-8.7-6.1c-4.1,0.7-6.8,4.7-6.1,8.7
				C428.8,824.9,432.7,827.6,436.8,826.9z"/>
		</g>
	</g>
</g>
<g>
	<g>
		<path class="st24" d="M1008,525.5c1.5,4.8,35.1,163.9-9.1,209c-18.4,18.8-42.3,25.2-56.7,29.1c-36.2,9.8-67.8,5-86.6,0.3"/>
		<g>
			<path class="st25" d="M857.8,756.8c-4-1.1-8.1,1.3-9.2,5.3c-1.1,4,1.3,8.1,5.3,9.2c4,1.1,8.1-1.3,9.2-5.3
				C864.2,762,861.8,757.9,857.8,756.8z"/>
		</g>
	</g>
</g>
<g>
	<g>
		<path class="st24" d="M752,417.3c-92.6-7.1-97.7,23.4-102.2,43.6c-6.1,27.5,26.5,47,24.5,84.3c-1.9,35.6-34.3,63.9-63.4,82.6"/>
		<g>
			<path class="st25" d="M607.2,621.2c-3.5,2.2-4.5,6.9-2.3,10.4c2.2,3.5,6.9,4.5,10.4,2.3c3.5-2.2,4.5-6.9,2.3-10.4
				C615.3,619.9,610.7,618.9,607.2,621.2z"/>
		</g>
	</g>
</g>
<g>
	<polygon class="st3" points="480.9,280.9 595.5,243.6 595.5,309.9 480.9,347.1 	"/>
	
		<ellipse transform="matrix(0.6479 -0.7617 0.7617 0.6479 -48.9158 485.2963)" class="st4" cx="500.5" cy="295.6" rx="7.8" ry="5.7"/>
	
		<ellipse transform="matrix(0.6479 -0.7617 0.7617 0.6479 -66.5634 493.4532)" class="st26" cx="500.5" cy="318.7" rx="7.8" ry="5.7"/>
	<polygon class="st4" points="515.9,286 575.9,266.5 575.9,274.6 515.9,294.1 	"/>
	<polygon class="st4" points="515.9,309.5 575.9,290 575.9,298.1 515.9,317.6 	"/>
</g>
<g>
	<polygon class="st1" points="808.7,345.5 923.9,384.5 923.9,465.2 808.7,426.2 	"/>
	
		<ellipse transform="matrix(0.7637 -0.6455 0.6455 0.7637 -46.9662 631.4061)" class="st1" cx="839.1" cy="379.9" rx="11.4" ry="15.9"/>
	<polygon class="st2" points="869,378.6 906.9,391.4 906.9,444 869,431.2 	"/>
	<polygon class="st1" points="828,399.7 854,408.4 854,426.1 828,417.3 	"/>
</g>
<g>
	<g>
		<path class="st24" d="M492.4,421.9c53.2,24.8,65.7,48.2,67.5,64.9c2.5,23.4-15.9,35.8-20.3,67.2c-4.1,29.6,6.3,55.3,17.4,73.9"/>
		<g>
			<path class="st25" d="M550.5,631.5c2.2,3.5,6.8,4.6,10.3,2.5c3.5-2.2,4.6-6.8,2.5-10.3c-2.2-3.5-6.8-4.6-10.3-2.5
				C549.5,623.4,548.4,628,550.5,631.5z"/>
		</g>
	</g>
</g>
<polygon class="st1" points="427.5,248.2 540.7,208.8 540.9,265.7 427.7,305.2 "/>
<polygon class="st1" points="246.3,388 360.8,350.8 360.8,417.1 246.3,454.3 "/>
<g>
	<polygon class="st3" points="251.9,390.9 366.5,353.6 366.5,419.9 251.9,457.1 	"/>
	
		<ellipse transform="matrix(0.6479 -0.7617 0.7617 0.6479 -213.3248 349.5952)" class="st4" cx="271.5" cy="405.6" rx="7.8" ry="5.7"/>
	
		<ellipse transform="matrix(0.6479 -0.7617 0.7617 0.6479 -230.9724 357.7522)" class="st26" cx="271.5" cy="428.7" rx="7.8" ry="5.7"/>
	<polygon class="st4" points="286.9,396 346.9,376.5 346.9,384.6 286.9,404.1 	"/>
	<polygon class="st4" points="286.9,419.5 346.9,400 346.9,408.1 286.9,427.6 	"/>
</g>
<polygon class="st1" points="477.9,193.2 592.4,156 592.4,222.2 477.9,259.5 "/>
<g>
	<polygon class="st3" points="483.5,196 598.1,158.8 598.1,225.1 483.5,262.3 	"/>
	<ellipse transform="matrix(0.6479 -0.7617 0.7617 0.6479 16.5987 457.405)" class="st4" cx="503.1" cy="210.7" rx="7.8" ry="5.7"/>
	
		<ellipse transform="matrix(0.6479 -0.7617 0.7617 0.6479 -1.0489 465.5619)" class="st26" cx="503.1" cy="233.9" rx="7.8" ry="5.7"/>
	<polygon class="st4" points="518.5,201.2 578.5,181.7 578.5,189.8 518.5,209.3 	"/>
	<polygon class="st4" points="518.5,224.6 578.5,205.1 578.5,213.2 518.5,232.7 	"/>
</g>
<polygon class="st1" points="447.8,352.9 594.8,305.2 594.8,559.5 447.8,607.3 "/>
<g>
	<polygon class="st11" points="453.5,355.8 600.5,308 600.5,562.4 453.5,610.1 	"/>
	<polygon class="st12" points="453.5,355.8 600.5,308 600.5,562.4 453.5,610.1 	"/>
	<polygon class="st13" points="471.3,386 512.9,371.7 512.9,384.2 471.3,398.5 	"/>
	<polygon class="st8" points="526.8,366.9 585.4,346.7 585.4,359.3 526.8,379.4 	"/>
	<polygon class="st13" points="471.3,488.4 512.9,474.1 512.9,486.7 471.3,501 	"/>
	<polygon class="st8" points="526.8,469.3 585.4,449.2 585.4,461.7 526.8,481.8 	"/>
	<polygon class="st13" points="471.3,411.9 512.9,397.6 512.9,410.1 471.3,424.4 	"/>
	<polygon class="st8" points="526.8,392.8 573.9,376.5 573.9,389.1 526.8,405.3 	"/>
	<polygon class="st8" points="471.6,513.3 585.5,473.8 585.5,486.3 471.6,525.5 	"/>
	<polygon class="st13" points="471.6,534.9 585.5,495.4 585.5,507.9 471.6,547.1 	"/>
	<polygon class="st13" points="471.3,437.7 499.9,427.8 499.9,440.4 471.3,450.2 	"/>
	<polygon class="st8" points="526.8,418.6 585.4,398.4 585.4,411 526.8,431.1 	"/>
	<polygon class="st8" points="471.9,560.4 530.5,540.2 530.5,552.8 471.9,572.9 	"/>
	<polygon class="st13" points="471.3,462.4 499.9,452.6 499.9,465.1 471.3,475 	"/>
	<polygon class="st8" points="526.8,443.3 566.7,429.6 566.7,442.1 526.8,455.9 	"/>
</g>
<g>
	<polygon class="st1" points="524.9,306.1 613.1,277.5 613.1,398.4 524.9,427.1 	"/>
	
		<ellipse transform="matrix(0.6479 -0.7617 0.7617 0.6479 -43.5389 546.1234)" class="st1" cx="569" cy="320.2" rx="14.4" ry="10.4"/>
	<polygon class="st15" points="544.5,355.7 595,339.3 595,349.3 544.5,365.7 	"/>
	<polygon class="st16" points="544.5,378.3 595,361.9 595,371.9 544.5,388.3 	"/>
</g>
<g>
	<polygon class="st4" points="530.5,309 618.8,280.3 618.8,401.3 530.5,429.9 	"/>
	
		<ellipse transform="matrix(0.6479 -0.7617 0.7617 0.6479 -43.7021 551.4396)" class="st8" cx="574.7" cy="323" rx="14.4" ry="10.4"/>
	<polygon class="st9" points="550.2,358.5 600.7,342.1 600.7,352.1 550.2,368.5 	"/>
	<polygon class="st10" points="550.2,381.1 600.7,364.7 600.7,374.7 550.2,391.1 	"/>
</g>
<g>
	<polygon class="st1" points="367.9,399.2 481.2,360.2 481.2,417.1 367.9,456.1 	"/>
	<ellipse transform="matrix(0.6443 -0.7647 0.7647 0.6443 -178.947 451.328)" class="st1" cx="395.7" cy="418" rx="18.4" ry="13"/>
	<polygon class="st1" points="423,398.8 460.9,385.8 460.9,392.7 423,405.7 	"/>
	<polygon class="st2" points="423,411.6 460.9,398.6 460.9,405.4 423,418.5 	"/>
</g>
<g>
	<polygon class="st3" points="373.5,402 486.9,363 486.9,419.9 373.5,459 	"/>
	
		<ellipse transform="matrix(0.6443 -0.7647 0.7647 0.6443 -179.0984 456.6718)" class="st4" cx="401.4" cy="420.9" rx="18.4" ry="13"/>
	<polygon class="st4" points="428.6,401.7 466.6,388.6 466.6,395.5 428.6,408.6 	"/>
	<polygon class="st5" points="428.6,414.5 466.6,401.4 466.6,408.3 428.6,421.3 	"/>
</g>
<polygon class="st1" points="260.9,145.7 376.1,108.3 376.1,189 260.9,226.4 "/>
<g>
	<polygon class="st3" points="266.5,148.5 381.8,111.1 381.8,191.8 266.5,229.3 	"/>
	<ellipse transform="matrix(0.6479 -0.7617 0.7617 0.6479 -19.4 283.4764)" class="st4" cx="297" cy="162.7" rx="15.8" ry="11.4"/>
	<polygon class="st27" points="326.9,141.6 364.8,129.3 364.8,181.9 326.9,194.2 	"/>
	<polygon class="st13" points="285.8,189.9 311.8,181.4 311.8,199.1 285.8,207.5 	"/>
</g>
<polygon class="st1" points="263.9,259.2 377.2,220.2 377.2,277.1 263.9,316.1 "/>
<g>
	<polygon class="st3" points="269.5,262 382.9,223 382.9,279.9 269.5,319 	"/>
	
		<ellipse transform="matrix(0.6443 -0.7647 0.7647 0.6443 -109.0235 327.3455)" class="st4" cx="297.4" cy="280.9" rx="18.4" ry="13"/>
	<polygon class="st4" points="324.6,261.7 362.6,248.6 362.6,255.5 324.6,268.6 	"/>
	<polygon class="st5" points="324.6,274.5 362.6,261.4 362.6,268.3 324.6,281.3 	"/>
</g>
<polygon class="st1" points="403.8,503.5 519,466.1 519,546.8 403.8,584.2 "/>
<g>
	<polygon class="st3" points="409.4,506.4 524.7,468.9 524.7,549.6 409.4,587.1 	"/>
	
		<ellipse transform="matrix(0.6479 -0.7617 0.7617 0.6479 -241.6448 518.2972)" class="st4" cx="439.8" cy="520.5" rx="15.8" ry="11.4"/>
	<polygon class="st27" points="469.8,499.4 507.6,487.1 507.6,539.7 469.8,552 	"/>
	<polygon class="st13" points="428.7,547.7 454.7,539.3 454.7,556.9 428.7,565.4 	"/>
</g>
<g>
	<polygon class="st1" points="421.8,245.4 535,205.9 535.3,262.9 422,302.3 	"/>
	<polygon class="st3" points="427.5,248.2 540.7,208.8 540.9,265.7 427.7,305.2 	"/>
	<ellipse transform="matrix(0.6415 -0.7672 0.7672 0.6415 -41.5165 445.127)" class="st4" cx="455.5" cy="267" rx="18.4" ry="13"/>
	<polygon class="st5" points="482.6,260.5 520.6,247.2 520.6,254.1 482.7,267.3 	"/>
	<polygon class="st4" points="482.6,247.7 520.5,234.5 520.5,241.3 482.6,254.6 	"/>
</g>
<g>
	<polygon class="st3" points="803,348.4 918.3,387.3 918.3,468 803,429.1 	"/>
	
		<ellipse transform="matrix(0.7637 -0.6455 0.6455 0.7637 -50.1355 628.4161)" class="st13" cx="833.4" cy="382.7" rx="11.4" ry="15.9"/>
	<polygon class="st27" points="863.3,381.4 901.2,394.2 901.2,446.8 863.3,434 	"/>
	<polygon class="st13" points="822.3,402.5 848.3,411.3 848.3,428.9 822.3,420.1 	"/>
</g>
<g>
	<polygon class="st1" points="818.2,93.6 932.7,132.3 932.7,198.6 818.2,159.9 	"/>
	
		<ellipse transform="matrix(0.7637 -0.6455 0.6455 0.7637 119.6318 569.454)" class="st1" cx="837.8" cy="121.3" rx="5.6" ry="7.9"/>
	
		<ellipse transform="matrix(0.7637 -0.6455 0.6455 0.7637 104.6755 574.928)" class="st2" cx="837.8" cy="144.5" rx="5.6" ry="7.9"/>
	<polygon class="st1" points="853.1,122 913.2,142.2 913.2,150.3 853.1,130.1 	"/>
	<polygon class="st1" points="853.1,145.4 913.2,165.7 913.2,173.8 853.1,153.5 	"/>
</g>
<g>
	<polygon class="st3" points="812.5,96.4 927.1,135.2 927.1,201.4 812.5,162.7 	"/>
	
		<ellipse transform="matrix(0.7637 -0.6455 0.6455 0.7637 116.4625 566.464)" class="st4" cx="832.1" cy="124.1" rx="5.6" ry="7.9"/>
	
		<ellipse transform="matrix(0.7637 -0.6455 0.6455 0.7637 101.5062 571.938)" class="st26" cx="832.1" cy="147.3" rx="5.6" ry="7.9"/>
	<polygon class="st4" points="847.5,124.8 907.5,145.1 907.5,153.2 847.5,132.9 	"/>
	<polygon class="st4" points="847.5,148.2 907.5,168.5 907.5,176.6 847.5,156.3 	"/>
</g>
<g>
	<path class="st1" d="M757.7,114.7l123,38.2c0,10.6,0,21.1,0,31.7c0,57.1,0,114.2,0,171.3c-41-12.7-82-25.4-123-38.2V114.7z"/>
	<polygon class="st1" points="825.1,296.3 862.6,307.9 862.6,318.4 825.1,306.8 	"/>
	<polygon class="st1" points="778.4,140.6 853.1,163.8 853.1,174.3 778.4,151.1 	"/>
	<polygon class="st28" points="786.8,164.1 844.8,182.1 844.8,192.6 786.8,174.6 	"/>
	<polygon class="st1" points="778.6,181.4 827.6,196.6 827.6,207.1 778.6,191.9 	"/>
	<polygon class="st1" points="778.2,259.9 813,270.7 813,281.2 778.2,270.4 	"/>
	<polygon class="st1" points="819.2,272.6 864.2,286.6 864.2,297.1 819.2,283.1 	"/>
	<polygon class="st1" points="778.2,201.8 813,212.6 813,223 778.2,212.3 	"/>
	<polygon class="st1" points="824.7,216.2 864.1,228.4 864.1,238.9 824.7,226.7 	"/>
	<polygon class="st1" points="837.3,199.1 861.2,206.6 861.2,217 837.3,209.6 	"/>
	<polygon class="st1" points="778.6,240 861.8,265.8 861.8,276.3 778.6,250.5 	"/>
	<polygon class="st1" points="778.2,220.4 864.2,247.1 864.2,257.6 778.2,230.9 	"/>
	<polygon class="st1" points="778.6,282 819.2,294.6 819.2,305.1 778.6,292.5 	"/>
</g>
<g>
	<path class="st3" d="M752,117.5l123,38.2c0,10.6,0,21.1,0,31.7c0,57.1,0,114.2,0,171.3c-41-12.7-82-25.4-123-38.2V117.5z"/>
	<polygon class="st13" points="819.5,299.2 857,310.8 857,321.3 819.5,309.6 	"/>
	<polygon class="st13" points="772.7,143.5 847.5,166.7 847.5,177.1 772.7,153.9 	"/>
	<polygon class="st14" points="781.1,166.9 839.2,184.9 839.2,195.4 781.1,177.4 	"/>
	<polygon class="st8" points="772.9,184.2 821.9,199.4 821.9,209.9 772.9,194.7 	"/>
	<polygon class="st13" points="772.5,262.7 807.3,273.5 807.3,284 772.5,273.2 	"/>
	<polygon class="st8" points="813.6,275.5 858.5,289.4 858.5,299.9 813.6,286 	"/>
	<polygon class="st13" points="772.5,204.6 807.3,215.4 807.3,225.9 772.5,215.1 	"/>
	<polygon class="st8" points="819,219 858.4,231.2 858.4,241.7 819,229.5 	"/>
	<polygon class="st13" points="831.6,202 855.6,209.4 855.6,219.9 831.6,212.5 	"/>
	<polygon class="st8" points="772.9,242.8 856.1,268.7 856.1,279.2 772.9,253.3 	"/>
	<polygon class="st13" points="772.5,223.3 858.5,249.9 858.5,260.4 772.5,233.8 	"/>
	<polygon class="st8" points="772.9,284.8 813.6,297.5 813.6,308 772.9,295.3 	"/>
</g>
<g>
	<polygon class="st1" points="895.7,174.5 1010.9,213.5 1010.9,294.2 895.7,255.2 	"/>
	
		<ellipse transform="matrix(0.7637 -0.6455 0.6455 0.7637 83.9749 647.1658)" class="st1" cx="926.1" cy="208.9" rx="11.4" ry="15.9"/>
	<polygon class="st2" points="956,207.6 993.9,220.4 993.9,273 956,260.2 	"/>
	<polygon class="st1" points="915,228.7 941,237.4 941,255.1 915,246.3 	"/>
</g>
<g>
	<polygon class="st3" points="890,177.4 1005.3,216.3 1005.3,297 890,258.1 	"/>
	
		<ellipse transform="matrix(0.7637 -0.6455 0.6455 0.7637 80.8056 644.1758)" class="st13" cx="920.4" cy="211.7" rx="11.4" ry="15.9"/>
	<polygon class="st27" points="950.3,210.4 988.2,223.2 988.2,275.8 950.3,263 	"/>
	<polygon class="st13" points="909.3,231.5 935.3,240.3 935.3,257.9 909.3,249.1 	"/>
</g>
<g>
	<polygon class="st1" points="947,349.4 1061.5,388.1 1061.5,454.4 947,415.7 	"/>
	
		<ellipse transform="matrix(0.7637 -0.6455 0.6455 0.7637 -15.0749 713.0298)" class="st1" cx="966.5" cy="377.1" rx="5.6" ry="7.9"/>
	
		<ellipse transform="matrix(0.7637 -0.6455 0.6455 0.7637 -30.0311 718.5039)" class="st2" cx="966.5" cy="400.3" rx="5.6" ry="7.9"/>
	<polygon class="st1" points="981.9,377.8 1041.9,398 1041.9,406.1 981.9,385.9 	"/>
	<polygon class="st1" points="981.9,401.2 1041.9,421.5 1041.9,429.6 981.9,409.3 	"/>
</g>
<g>
	<polygon class="st3" points="941.3,352.3 1055.9,391 1055.9,457.2 941.3,418.5 	"/>
	
		<ellipse transform="matrix(0.7637 -0.6455 0.6455 0.7637 -18.2442 710.0399)" class="st4" cx="960.9" cy="379.9" rx="5.6" ry="7.9"/>
	
		<ellipse transform="matrix(0.7637 -0.6455 0.6455 0.7637 -33.2005 715.5139)" class="st26" cx="960.9" cy="403.1" rx="5.6" ry="7.9"/>
	<polygon class="st4" points="976.3,380.6 1036.3,400.9 1036.3,409 976.3,388.7 	"/>
	<polygon class="st4" points="976.3,404 1036.3,424.3 1036.3,432.4 976.3,412.1 	"/>
</g>
<g>
	<polygon class="st1" points="695.6,213.4 810.1,252.1 810.1,318.4 695.6,279.6 	"/>
	
		<ellipse transform="matrix(0.7637 -0.6455 0.6455 0.7637 13.3505 518.6121)" class="st1" cx="715.2" cy="241.1" rx="5.6" ry="7.9"/>
	
		<ellipse transform="matrix(0.7637 -0.6455 0.6455 0.7637 -1.6057 524.0861)" class="st2" cx="715.2" cy="264.2" rx="5.6" ry="7.9"/>
	<polygon class="st1" points="730.5,241.7 790.6,262 790.6,270.1 730.5,249.8 	"/>
	<polygon class="st1" points="730.5,265.2 790.6,285.4 790.6,293.5 730.5,273.3 	"/>
</g>
<g>
	<polygon class="st3" points="689.9,216.2 804.5,254.9 804.5,321.2 689.9,282.5 	"/>
	
		<ellipse transform="matrix(0.7637 -0.6455 0.6455 0.7637 10.1812 515.6221)" class="st4" cx="709.5" cy="243.9" rx="5.6" ry="7.9"/>
	
		<ellipse transform="matrix(0.7637 -0.6455 0.6455 0.7637 -4.775 521.0961)" class="st26" cx="709.5" cy="267.1" rx="5.6" ry="7.9"/>
	<polygon class="st4" points="724.9,244.6 784.9,264.8 784.9,272.9 724.9,252.7 	"/>
	<polygon class="st4" points="724.9,268 784.9,288.3 784.9,296.4 724.9,276.1 	"/>
</g>
<g>
	<polygon class="st1" points="951.4,453.2 1070.3,494.1 1070.3,553.8 951.4,512.9 	"/>
	
		<ellipse transform="matrix(0.7647 -0.6443 0.6443 0.7647 -87.0061 747.8484)" class="st1" cx="980.6" cy="493.1" rx="13.7" ry="19.3"/>
	<polygon class="st1" points="1009.2,492.6 1049,506.3 1049,513.5 1009.2,499.8 	"/>
	<polygon class="st2" points="1009.2,506 1049,519.7 1049,526.9 1009.2,513.2 	"/>
</g>
<g>
	<polygon class="st3" points="945.7,456 1064.6,496.9 1064.6,556.6 945.7,515.7 	"/>
	
		<ellipse transform="matrix(0.7647 -0.6443 0.6443 0.7647 -90.1663 744.8623)" class="st4" cx="975" cy="495.9" rx="13.7" ry="19.3"/>
	<polygon class="st4" points="1003.5,495.4 1043.3,509.1 1043.3,516.3 1003.5,502.6 	"/>
	<polygon class="st5" points="1003.5,508.8 1043.3,522.5 1043.3,529.8 1003.5,516.1 	"/>
</g>
<g>
	<polygon class="st1" points="872.9,409.8 961.1,439.6 961.1,560.5 872.9,530.7 	"/>
	
		<ellipse transform="matrix(0.7637 -0.6455 0.6455 0.7637 -75.7837 699.0234)" class="st1" cx="917.1" cy="453" rx="10.3" ry="14.4"/>
	<polygon class="st15" points="892.6,472.4 943,489.4 943,499.4 892.6,482.4 	"/>
	<polygon class="st16" points="892.6,495 943,512 943,522 892.6,505 	"/>
</g>
<g>
	<polygon class="st4" points="867.2,412.6 955.5,442.4 955.5,563.4 867.2,533.5 	"/>
	
		<ellipse transform="matrix(0.7637 -0.6455 0.6455 0.7637 -78.953 696.0334)" class="st8" cx="911.4" cy="455.9" rx="10.3" ry="14.4"/>
	<polygon class="st9" points="886.9,475.2 937.4,492.2 937.4,502.2 886.9,485.2 	"/>
	<polygon class="st10" points="886.9,497.8 937.4,514.9 937.4,524.8 886.9,507.8 	"/>
</g>
</svg>
