<?xml version="1.0" encoding="utf-8"?>
<!-- Generator: Adobe Illustrator 25.0.0, SVG Export Plug-In . SVG Version: 6.00 Build 0)  -->
<svg version="1.1" id="Layer_1" xmlns="http://www.w3.org/2000/svg" xmlns:xlink="http://www.w3.org/1999/xlink" x="0px" y="0px"
	 viewBox="0 0 675.2 146" style="enable-background:new 0 0 675.2 146;" xml:space="preserve">
<g>
	<g>
		<g>
			<path d="M113,61.8c-1.9-4.5-4.7-8.6-8.1-12c-0.1-0.1-0.2-0.2-0.2-0.2c2.3-4.6,3.6-9.8,3.6-15.2c0-8.8-3.3-16.9-8.8-23l0,0
				c-0.4-0.4-0.8-0.9-1.2-1.3C92,3.8,83.4,0,73.9,0H28.7l0,0v28.7h43.1v28.7H50.3l0,0v28.7H28.7l0,0v28.7h49.1
				c9.2,0,17.6-3.2,24.1-8.6c8.6-7,14.1-17.7,14.1-29.6C116,71.4,114.9,66.4,113,61.8z"/>
			<rect y="28.7" width="28.7" height="28.7"/>
		</g>
	</g>
	<g>
		<g>
			<path d="M172.7,114.7c-7.5,0-14.3-2-17.9-6.4c-1.1-1.2-2.1-1.2-2.1,0.9v2.5c0,1.1-0.4,2.1-2,2.1h-11.6c-1.4,0-2.3-0.5-2.3-2.1
				V2.3c0-1.6,0.7-2.3,2.3-2.3h12.3c1.4,0,2.1,0.7,2.1,2.1v36.2c0,2.5,1.2,2.3,3.2,0.9c4.1-3,9.1-5.4,17-5.4
				c20,0,27.9,13.9,27.9,30.2v20.5C201.7,101.5,190.9,114.7,172.7,114.7z M184.9,64.1c0-8.6-4.6-15.7-15.5-15.7
				c-9.1,0-15.7,7.1-15.7,15.7v20.5c0,8.6,5.5,15.5,15.5,15.5c9.8,0,15.5-5.7,15.5-15.5L184.9,64.1z"/>
			<path d="M221.5,22c-5.7,0-10.4-4.3-10.4-10c0-5.5,4.6-10,10.2-10c5.7,0,10.5,4.5,10.5,10C231.8,17.3,227,22,221.5,22z
				 M227.6,113.8h-12.5c-1.4,0-2.3-0.7-2.3-2.1V37.3c0-1.6,0.7-2.3,2.1-2.3h12.5c1.4,0,2.3,0.7,2.3,2.3v74.3
				C229.7,111.6,230.1,113.8,227.6,113.8z"/>
			<path d="M305.6,113.8h-12.5c-1.6,0-2.3-0.7-2.3-2.1V64.3c0-9.1-4.8-15.7-15.5-15.7c-9.3,0-15.4,6.4-15.4,15.5v47.3
				c0,1.6-0.9,2.3-2.3,2.3h-12.3c-1.4,0-2.5-0.7-2.5-2.1V37.3c0-1.6,0.9-2.3,2.3-2.3h12.3c1.4,0,2,0.5,2,2.1v3.6
				c0,1.8,1.2,1.6,2.3,0.4c4.3-4.5,13-7.1,19.5-7.1c18.4,0,26.6,12.1,26.6,30v47.5C307.8,113.1,306.9,113.8,305.6,113.8z"/>
			<path d="M380.6,113.8h-11.4c-1.8,0-2-1.1-2.1-2.1V110c-0.2-2.1-0.9-2.1-2-1.1c-4.5,4.3-10.5,5.9-18,5.9
				c-19.8,0-28.9-13.2-28.9-30.2V64.1c0-16.2,10.9-30.2,29.3-30.2c8,0,12.7,2.5,15.5,4.6c1.8,1.4,3,1.6,3-0.9V2.2
				c0-1.4,0.7-2.1,2.3-2.1h12.3c1.4,0,2.3,0.7,2.3,2.3v109.3C383,113.1,382.2,113.8,380.6,113.8z M366.2,64.1
				c0-8.6-5.2-15.7-15.7-15.7c-9.5,0-15.5,7.1-15.5,15.7v20.5c0,8.9,5.4,15.5,15.7,15.5c8.8,0,15.4-7,15.4-15.5L366.2,64.1z"/>
			<path d="M430.6,114.7c-7.5,0-14.3-2-17.9-6.4c-1.1-1.2-2.1-1.2-2.1,0.9v2.5c0,1.1-0.4,2.1-2,2.1h-11.6c-1.4,0-2.3-0.5-2.3-2.1
				V2.3c0-1.6,0.7-2.3,2.3-2.3h12.3c1.4,0,2.1,0.7,2.1,2.1v36.2c0,2.5,1.2,2.3,3.2,0.9c4.1-3,9.1-5.4,17-5.4
				c20,0,27.9,13.9,27.9,30.2v20.5C459.6,101.5,448.8,114.7,430.6,114.7z M442.8,64.1c0-8.6-4.6-15.7-15.5-15.7
				c-9.1,0-15.7,7.1-15.7,15.7v20.5c0,8.6,5.5,15.5,15.5,15.5c9.8,0,15.5-5.7,15.5-15.5L442.8,64.1z"/>
			<path d="M502,114.8c-20,0-32.5-11.1-32.5-30V63.9c0-18.2,13.2-30.4,32.3-30.4c19.8,0,32.5,11.1,32.5,30.2v20.7
				C534.3,104,522,114.8,502,114.8z M486.4,84.5c0,9.1,5,15.7,15.4,15.7c9.6,0,15.5-6.2,15.5-15.7V64.1c0-9.3-5.4-15.7-15.4-15.7
				s-15.5,6.4-15.5,15.7V84.5z"/>
			<path d="M580,115c-7.9,0-13-2.5-15.7-4.6c-2-1.4-3.2-1.6-3.2,0.9v32.5c0,1.4-0.7,2.1-2.1,2.1h-12.3c-1.6,0-2.3-0.7-2.3-2.3V37.3
				c0-1.4,0.7-2.1,2.3-2.1h12c1.8,0,1.8,1.1,1.8,2.1v1.6c0,1.8,1.1,2.1,2.3,1.1c6.1-4.8,11.8-5.9,18.2-5.9
				c19.5,0,28.2,13.2,28.2,30.2v20.5C609.1,101.1,598.7,115,580,115z M592.1,64.3c0-8.9-5.5-15.5-15.5-15.5c-8.9,0-15.5,7-15.5,15.5
				v20.5c0,8.6,6.4,15.7,15.7,15.7s15.4-7.1,15.4-15.7V64.3z"/>
			<path d="M645.9,114.7c-12.5,0-24.5-4.8-30-16.8c-0.2-0.5-0.4-0.9-0.4-1.4c0-0.5,0.4-1.2,1.1-1.6l9.3-4.6c1.8-0.9,2.3-0.4,3.4,1.1
				c4.1,6.1,10.2,9.6,17.5,9.6c6.6,0,11.8-3.2,11.8-8.8c0-5-3.6-7.1-9.6-9.5l-11.4-3.9c-10.7-3.8-19.6-9.6-19.6-21.8
				c0-15.2,13.2-22.9,27.9-23c9.3,0,19.6,2.7,27,10c0.9,0.9,1.1,2.1,0,3.2l-5.9,7.7c-0.5,0.5-1.1,0.9-1.6,0.9s-1.2-0.2-2.1-0.9
				c-4.7-3.6-11.8-6.6-17-6.6c-5.5,0-11.8,2.3-11.8,7.9c0,4.1,3.4,7,9.6,9.1c13.9,4.8,31.3,8.9,31.3,26.4
				C675.2,105.4,663.4,114.7,645.9,114.7z"/>
		</g>
	</g>
</g>
</svg>
