<svg id="Layer_1" data-name="Layer 1" xmlns="http://www.w3.org/2000/svg" viewBox="0 0 723.17 170"><defs><style>.cls-1{fill:#1d1d1b;}</style></defs><path class="cls-1" d="M93.56,339.94c-8.74,0-16.65-2.28-20.81-7.48-1.25-1.47-2.49-1.47-2.49,1v2.92c0,1.25-.41,2.5-2.29,2.5H54.45c-1.67,0-2.72-.63-2.72-2.5V209.06c0-1.87.84-2.7,2.72-2.7H68.8a2.21,2.21,0,0,1,2.5,2.5V251.1c0,2.91,1.45,2.71,3.75,1,4.78-3.53,10.6-6.25,19.76-6.25,23.3,0,32.46,16.24,32.46,35.17V305C127.27,324.54,114.78,339.94,93.56,339.94Zm14.15-58.88c0-10-5.41-18.31-18.1-18.31A18.07,18.07,0,0,0,71.3,281.06V305c0,10,6.45,18.1,18.1,18.1,11.45,0,18.1-6.66,18.1-18.1Z" transform="translate(-51.73 -206.36)"/><path class="cls-1" d="M150.34,232a11.65,11.65,0,1,1-.2-23.3c6.65,0,12.27,5.2,12.27,11.65C162.41,226.54,156.79,232,150.34,232Zm7.08,107H142.86c-1.67,0-2.71-.84-2.71-2.5V249.85c0-1.87.83-2.71,2.49-2.71h14.57a2.42,2.42,0,0,1,2.7,2.71v86.56S160.33,338.91,157.42,338.91Z" transform="translate(-51.73 -206.36)"/><path class="cls-1" d="M248.33,338.91H233.77c-1.87,0-2.7-.84-2.7-2.5V281.27c0-10.61-5.62-18.31-18.11-18.31-10.81,0-17.89,7.49-17.89,18.1v55.13a2.42,2.42,0,0,1-2.7,2.72H178c-1.66,0-2.91-.84-2.91-2.5V249.85a2.42,2.42,0,0,1,2.7-2.71h14.36c1.66,0,2.29.63,2.29,2.5v4.17c0,2.07,1.45,1.87,2.7.41,5-5.21,15.2-8.33,22.68-8.33,21.43,0,31,14.15,31,35v55.33C250.83,338.07,249.8,338.91,248.33,338.91Z" transform="translate(-51.73 -206.36)"/><path class="cls-1" d="M335.71,338.91H322.39c-2.08,0-2.29-1.25-2.5-2.5v-1.87c-.21-2.5-1-2.5-2.29-1.25-5.2,5-12.27,6.87-21,6.87-23.1,0-33.71-15.4-33.71-35.17V281.06c0-18.93,12.7-35.17,34.12-35.17,9.36,0,14.78,2.92,18.11,5.42,2.07,1.66,3.53,1.87,3.53-1.05v-41.4c0-1.67.84-2.5,2.71-2.5h14.36a2.42,2.42,0,0,1,2.7,2.7V336.41C338.41,338.07,337.58,338.91,335.71,338.91Zm-16.86-57.85c0-10-6-18.31-18.31-18.31-11,0-18.1,8.32-18.1,18.31V305c0,10.4,6.24,18.1,18.31,18.1A17.8,17.8,0,0,0,318.64,305Z" transform="translate(-51.73 -206.36)"/><path class="cls-1" d="M393.94,339.94c-8.73,0-16.64-2.28-20.8-7.48-1.25-1.47-2.5-1.47-2.5,1v2.92c0,1.25-.42,2.5-2.29,2.5H354.83c-1.67,0-2.71-.63-2.71-2.5V209.06c0-1.87.84-2.7,2.71-2.7h14.36a2.21,2.21,0,0,1,2.49,2.5V251.1c0,2.91,1.46,2.71,3.74,1,4.79-3.53,10.62-6.25,19.77-6.25,23.3,0,32.46,16.24,32.46,35.17V305C427.65,324.54,415.17,339.94,393.94,339.94Zm14.15-58.88c0-10-5.4-18.31-18.1-18.31a18.07,18.07,0,0,0-18.31,18.31V305c0,10,6.45,18.1,18.11,18.1,11.43,0,18.1-6.66,18.1-18.1Z" transform="translate(-51.73 -206.36)"/><path class="cls-1" d="M477.53,340.16c-23.31,0-37.87-12.9-37.87-35V280.86c0-21.23,15.39-35.38,37.66-35.38,23.09,0,37.86,12.9,37.86,35.16v24.14C515.18,327.46,500.83,340.16,477.53,340.16Zm-18.1-35.38c0,10.61,5.82,18.31,17.89,18.31,11.23,0,18.1-7.28,18.1-18.31V281.06c0-10.82-6.24-18.31-17.89-18.31s-18.1,7.49-18.1,18.31Z" transform="translate(-51.73 -206.36)"/><path class="cls-1" d="M569.89,340.36c-9.16,0-15.19-2.92-18.31-5.4-2.29-1.67-3.75-1.88-3.75,1v37.87a2.21,2.21,0,0,1-2.49,2.5H531c-1.87,0-2.7-.84-2.7-2.7V249.85c0-1.66.83-2.49,2.7-2.49h13.94c2.08,0,2.08,1.25,2.08,2.49v1.87c0,2.09,1.25,2.5,2.71,1.25,7.07-5.61,13.73-6.86,21.22-6.86,22.68,0,32.88,15.4,32.88,35.16v23.92C603.81,324.13,591.74,340.36,569.89,340.36ZM584,281.27c0-10.41-6.45-18.11-18.1-18.11a17.86,17.86,0,0,0-18.11,18.11v23.92a18,18,0,0,0,18.31,18.32c10.82,0,17.9-8.32,17.9-18.32Z" transform="translate(-51.73 -206.36)"/><path class="cls-1" d="M646.65,339.94c-14.56,0-28.51-5.61-35-19.55a5.19,5.19,0,0,1-.42-1.67,2.24,2.24,0,0,1,1.25-1.88l10.82-5.4c2.08-1.05,2.71-.42,4,1.25,4.79,7.07,11.86,11.23,20.39,11.23,7.7,0,13.73-3.74,13.73-10.19,0-5.82-4.16-8.32-11.23-11l-13.32-4.58C624.39,293.76,614,286.89,614,272.74c0-17.68,15.38-26.63,32.45-26.85,10.82,0,22.88,3.12,31.42,11.66a2.46,2.46,0,0,1,0,3.74L671,270.24a2.89,2.89,0,0,1-1.87,1,4,4,0,0,1-2.5-1c-5.41-4.16-13.73-7.7-19.76-7.7-6.45,0-13.74,2.7-13.74,9.15,0,4.79,4,8.12,11.24,10.62,16.23,5.62,36.41,10.4,36.41,30.8C680.77,329.13,667,339.94,646.65,339.94Z" transform="translate(-51.73 -206.36)"/><path class="cls-1" d="M703.69,338.91h-4.26c-.81,0-1.22-.37-1.22-1.07V246.27c0-.71.41-1.07,1.22-1.07h4.26c.8,0,1.21.36,1.21,1.07v91.57C704.9,338.54,704.49,338.91,703.69,338.91Z" transform="translate(-51.73 -206.36)"/><path class="cls-1" d="M774.9,313.54q0,12.3-6.67,18.83t-18.68,6.54H721.3c-.71,0-1.07-.41-1.07-1.22V246.41c0-.8.36-1.21,1.07-1.21h28.4q25.2,0,25.2,24.45Zm-6.67-43.66a30,30,0,0,0-.93-7.62,14.58,14.58,0,0,0-3.11-6,15.18,15.18,0,0,0-5.88-4,25.05,25.05,0,0,0-9.14-1.45H727.68a3.16,3.16,0,0,0-.76.08c-.21,0-.31.33-.31.84v80.63c0,.61.36.91,1.07.91h21.8c5.79,0,10.36-1.56,13.71-4.72s5-7.93,5-14.34Z" transform="translate(-51.73 -206.36)"/></svg>