<svg id="Layer_1" data-name="Layer 1" xmlns="http://www.w3.org/2000/svg" viewBox="0 0 1853 924.59"><defs><style>.cls-1{fill:#ebf1ff;}.cls-2{fill:#24285b;}.cls-12,.cls-3,.cls-8,.cls-9{fill:#fff;}.cls-4{fill:#25f;}.cls-5{fill:#f06292;}.cls-6{fill:#e6e6e6;}.cls-7{fill:#c9c9c9;}.cls-8{opacity:0.45;}.cls-12,.cls-8,.cls-9{isolation:isolate;}.cls-9{opacity:0.52;}.cls-10{fill:#e10098;}.cls-11{fill:none;stroke:#e10098;stroke-linecap:round;stroke-linejoin:round;stroke-width:3px;stroke-dasharray:4 7;}.cls-12{opacity:0.46;}</style></defs><path class="cls-1" d="M503.77,199.23C338.88,287.51,230.42,447.11,220,624.56,212.32,756,259.6,884,461.68,905.82c437.1,47.18,1337.55,88.67,1355.75-177.4C1834.49,478.17,1465.25-315.51,503.77,199.23Z" transform="translate(-40 -29.07)"/><rect class="cls-2" x="79.22" y="257.17" width="758.78" height="603.75"/><circle class="cls-3" cx="140.92" cy="306.33" r="13.28"/><circle class="cls-4" cx="220.44" cy="335.4" r="13.28" transform="translate(-185.95 470.2) rotate(-80.78)"/><circle class="cls-5" cx="217.64" cy="306.33" r="13.28"/><rect class="cls-4" x="356.36" y="535.44" width="220.94" height="16.1"/><rect class="cls-5" x="454.8" y="577.79" width="195.2" height="16.1"/><rect class="cls-5" x="428.8" y="747.79" width="220.94" height="16.1"/><rect class="cls-4" x="303.18" y="496.46" width="185.41" height="16.1"/><rect class="cls-4" x="527.14" y="496.46" width="185.41" height="16.1"/><rect class="cls-5" x="356.36" y="451.52" width="165.78" height="16.1"/><rect class="cls-5" x="565.27" y="451.52" width="165.78" height="16.1"/><rect class="cls-3" x="234.4" y="535.44" width="83.1" height="16.1"/><rect class="cls-4" x="419.36" y="704.44" width="220.94" height="16.1"/><rect class="cls-3" x="297.4" y="704.44" width="83.1" height="16.1"/><rect class="cls-3" x="317.15" y="577.79" width="83.1" height="16.1"/><rect class="cls-3" x="181.21" y="496.46" width="83.1" height="16.1"/><rect class="cls-4" x="303.18" y="618.46" width="185.41" height="16.1"/><rect class="cls-4" x="215.18" y="747.46" width="185.41" height="16.1"/><rect class="cls-4" x="512.14" y="618.46" width="155.86" height="16.1"/><rect class="cls-3" x="181.21" y="618.46" width="83.1" height="16.1"/><rect class="cls-3" x="181.21" y="373.8" width="83.1" height="16.1"/><rect class="cls-3" x="234.4" y="414.13" width="83.1" height="16.1"/><rect class="cls-5" x="356.36" y="414.13" width="165.78" height="16.1"/><rect class="cls-5" x="565.27" y="414.13" width="165.78" height="16.1"/><rect class="cls-3" x="234.4" y="451.52" width="83.1" height="16.1"/><rect class="cls-5" x="356.36" y="662.52" width="165.78" height="16.1"/><rect class="cls-5" x="565.27" y="662.52" width="165.78" height="16.1"/><rect class="cls-3" x="234.4" y="662.52" width="83.1" height="16.1"/><rect class="cls-4" x="297.53" y="373.8" width="171.16" height="16.1"/><rect class="cls-4" x="504.5" y="373.8" width="121.54" height="16.1"/><rect class="cls-2" x="78.8" y="257.2" width="758.74" height="603.97"/><circle class="cls-3" cx="130.59" cy="306.25" r="13.71"/><circle class="cls-4" cx="171.38" cy="306.25" r="13.71"/><circle class="cls-5" cx="209.8" cy="306.25" r="13.71"/><rect class="cls-6" x="1022.82" y="325.73" width="759.8" height="598.87"/><rect class="cls-7" x="1129.22" y="709.23" width="145.19" height="138.88"/><circle class="cls-2" cx="1082.11" cy="367.88" r="11.86"/><circle class="cls-4" cx="1117.37" cy="367.88" r="11.86"/><circle class="cls-5" cx="1150.58" cy="367.88" r="11.86"/><rect class="cls-7" x="1127.32" y="424.5" width="308.65" height="105.43"/><rect class="cls-3" x="1264.85" y="453.83" width="117.56" height="17.51"/><rect class="cls-8" x="1264.85" y="483.09" width="117.56" height="17.51"/><rect class="cls-3" x="1170.65" y="443.19" width="42.78" height="68.14"/><rect class="cls-9" x="1189.32" y="443.19" width="37" height="68.14"/><rect class="cls-7" x="1311.41" y="709.23" width="145.19" height="138.88"/><rect class="cls-5" x="756.55" y="220.96" width="114.68" height="78.84"/><path class="cls-3" d="M838.47,304.93a2.66,2.66,0,0,1-1.64-.57l-17.18-13.59a2.58,2.58,0,0,1-1-2.07,2.65,2.65,0,0,1,1-2.08l17.18-13.84a2.66,2.66,0,1,1,3.34,4.15l-14.6,11.76,14.59,11.45a2.65,2.65,0,0,1-1.67,4.73Z" transform="translate(-40 -29.07)"/><path class="cls-3" d="M869.61,304.93a2.65,2.65,0,0,1-1.64-4.79l14.57-11.45L868,277a2.66,2.66,0,0,1,3.32-4.15h0l17.18,13.84a2.55,2.55,0,0,1,1.09,2.05,2.63,2.63,0,0,1-1,2.06l-17.18,13.59A2.68,2.68,0,0,1,869.61,304.93Z" transform="translate(-40 -29.07)"/><path class="cls-3" d="M846.84,304.93a2.47,2.47,0,0,1-1.11-.25,2.66,2.66,0,0,1-1.32-3.51l12.52-27.43a2.68,2.68,0,0,1,3.54-1.3,2.64,2.64,0,0,1,1.31,3.49l0,0-12.52,27.44A2.64,2.64,0,0,1,846.84,304.93Z" transform="translate(-40 -29.07)"/><path class="cls-10" d="M850.1,717.88,838.19,711,971.08,480.82,983,487.71Z" transform="translate(-40 -29.07)"/><path class="cls-10" d="M835.05,692h264v15.23h-264Z" transform="translate(-40 -29.07)"/><path class="cls-10" d="M973.66,777.11,840.71,700.35l6.89-11.92,132.95,76.76ZM1089.15,577l-133-76.75,6.89-11.91L1096,565.13Z" transform="translate(-40 -29.07)"/><path class="cls-10" d="M847.63,577l-6.89-11.92,133.07-76.78,6.89,11.92Z" transform="translate(-40 -29.07)"/><path class="cls-10" d="M1086.7,717.88,953.79,487.69l11.92-6.89L1098.62,711Zm-241.49-163h15.23V707.23H845.21Zm233.57,0H1094V707.23h-15.24Z" transform="translate(-40 -29.07)"/><path class="cls-10" d="M971.32,771.27l-6-10.42,115.64-66.76,6,10.42Z" transform="translate(-40 -29.07)"/><path class="cls-10" d="M1109.05,713.93a29,29,0,1,1-10.62-39.58,29,29,0,0,1,10.62,39.58M877.85,580.41a29,29,0,1,1-10.62-39.59,29,29,0,0,1,10.62,39.59M827.73,713.93a29,29,0,1,1,39.58,10.63,29,29,0,0,1-39.58-10.63m231.2-133.52a29,29,0,1,1,39.58,10.63,29,29,0,0,1-39.58-10.63M968.57,795.18a29,29,0,1,1,29-29h0a29,29,0,0,1-29,29m2.08-265.66a28.92,28.92,0,0,1-29-28.88v-.09c0-12.29,7.62-23.61,19.32-27.4,20.07-6.5,38.6,8.29,38.6,27.4a28.93,28.93,0,0,1-28.89,29h1.43" transform="translate(-40 -29.07)"/><line class="cls-11" x1="1161.28" y1="601.99" x2="1057.02" y2="601.99"/><path class="cls-10" d="M1200.72,619.78a11.28,11.28,0,1,1-11.28,11.28A11.29,11.29,0,0,1,1200.72,619.78Z" transform="translate(-40 -29.07)"/><line class="cls-11" x1="802.08" y1="601.99" x2="697.72" y2="601.99"/><path class="cls-10" d="M738.28,619.78a11.28,11.28,0,1,0,11.28,11.28A11.29,11.29,0,0,0,738.28,619.78Z" transform="translate(-40 -29.07)"/><rect class="cls-7" x="1521.91" y="408.69" width="331.09" height="439.42"/><rect class="cls-5" x="1628.52" y="700.88" width="117.87" height="51.86"/><rect class="cls-12" x="1686.14" y="708.12" width="51.14" height="13.35"/><rect class="cls-3" x="1652.79" y="775.9" width="77.14" height="15.46"/><rect class="cls-6" x="1553.39" y="442.04" width="124.81" height="97.52"/><rect class="cls-6" x="1696.68" y="442.04" width="124.81" height="97.52"/><rect class="cls-6" x="1553.39" y="559.85" width="124.81" height="97.52"/><rect class="cls-6" x="1696.68" y="559.85" width="124.81" height="97.52"/><rect class="cls-4" x="319.84" y="552.35" width="220.94" height="16.1"/><rect class="cls-5" x="418.28" y="594.69" width="195.2" height="16.1"/><rect class="cls-5" x="392.28" y="764.69" width="220.94" height="16.1"/><rect class="cls-4" x="266.66" y="513.37" width="185.41" height="16.1"/><rect class="cls-4" x="490.62" y="513.37" width="185.41" height="16.1"/><rect class="cls-5" x="319.84" y="468.43" width="165.78" height="16.1"/><rect class="cls-5" x="528.75" y="468.43" width="165.78" height="16.1"/><rect class="cls-3" x="197.88" y="552.35" width="83.1" height="16.1"/><rect class="cls-4" x="382.84" y="721.35" width="220.94" height="16.1"/><rect class="cls-3" x="260.88" y="721.35" width="83.1" height="16.1"/><rect class="cls-3" x="280.63" y="594.69" width="83.1" height="16.1"/><rect class="cls-3" x="144.69" y="513.37" width="83.1" height="16.1"/><rect class="cls-4" x="266.66" y="635.37" width="185.41" height="16.1"/><rect class="cls-4" x="178.66" y="764.37" width="185.41" height="16.1"/><rect class="cls-4" x="475.62" y="635.37" width="155.86" height="16.1"/><rect class="cls-3" x="144.69" y="635.37" width="83.1" height="16.1"/><rect class="cls-3" x="144.69" y="390.71" width="83.1" height="16.1"/><rect class="cls-3" x="197.88" y="431.04" width="83.1" height="16.1"/><rect class="cls-5" x="319.84" y="431.04" width="165.78" height="16.1"/><rect class="cls-5" x="528.75" y="431.04" width="165.78" height="16.1"/><rect class="cls-3" x="197.88" y="468.43" width="83.1" height="16.1"/><rect class="cls-5" x="319.84" y="679.43" width="165.78" height="16.1"/><rect class="cls-5" x="528.75" y="679.43" width="165.78" height="16.1"/><rect class="cls-3" x="197.88" y="679.43" width="83.1" height="16.1"/><rect class="cls-4" x="261.01" y="390.71" width="171.16" height="16.1"/><rect class="cls-4" x="467.98" y="390.71" width="121.54" height="16.1"/><rect class="cls-6" y="602.83" width="232.93" height="313.15"/><rect class="cls-7" y="602.51" width="232.93" height="312.72"/><rect class="cls-6" x="28.22" y="654.72" width="65.89" height="20.65"/><rect class="cls-3" x="116.23" y="654.72" width="92.75" height="20.65"/><rect class="cls-6" x="28.22" y="823.38" width="65.89" height="20.65"/><rect class="cls-3" x="116.23" y="823.38" width="92.75" height="20.65"/><rect class="cls-6" x="28.22" y="697.33" width="65.89" height="20.65"/><rect class="cls-3" x="116.23" y="697.33" width="74.67" height="20.65"/><rect class="cls-6" x="28.22" y="739.81" width="45.32" height="20.65"/><rect class="cls-3" x="116.23" y="739.81" width="92.75" height="20.65"/><rect class="cls-6" x="28.22" y="780.6" width="45.32" height="20.65"/><rect class="cls-3" x="116.23" y="780.6" width="63.23" height="20.65"/></svg>